<svg width="16" height="16" viewBox="0 0 16 16" fill="none" xmlns="http://www.w3.org/2000/svg">
<g clip-path="url(#clip0_180_761)">
<path d="M13.3333 2.66675V6.00008L11.1904 7.66675L7.33329 10.6667L4.66663 13.3334L2.66663 11.3334L5.33329 8.66675L9.99996 2.66675H13.3333Z" stroke="black" stroke-width="1.1" stroke-linecap="round" stroke-linejoin="round"/>
<path d="M4.33337 7.66675L8.33337 11.6667" stroke="black" stroke-width="1.1" stroke-linecap="round" stroke-linejoin="round"/>
<g clip-path="url(#clip1_180_761)">
<path fill-rule="evenodd" clip-rule="evenodd" d="M5.99394 -0.154477C6.09692 -0.12099 6.16663 -0.0250156 6.16663 0.0832689V1.58327H7.41663C7.51066 1.58327 7.59674 1.63603 7.63941 1.71982C7.68208 1.80362 7.67412 1.90427 7.61881 1.98031L5.61881 4.73031C5.55512 4.81789 5.44229 4.8545 5.33932 4.82101C5.23634 4.78753 5.16663 4.69155 5.16663 4.58327V3.08327H3.91663C3.8226 3.08327 3.73652 3.03051 3.69385 2.94671C3.65118 2.86292 3.65914 2.76227 3.71444 2.68623L5.71444 -0.063774C5.77813 -0.151348 5.89096 -0.187963 5.99394 -0.154477ZM4.40757 2.58327H5.41663C5.5547 2.58327 5.66663 2.6952 5.66663 2.83327V3.81447L6.92568 2.08327H5.91663C5.77856 2.08327 5.66663 1.97134 5.66663 1.83327V0.852065L4.40757 2.58327Z" fill="black"/>
</g>
<g clip-path="url(#clip2_180_761)">
<path fill-rule="evenodd" clip-rule="evenodd" d="M11.3273 9.17902C11.4303 9.21251 11.5 9.30848 11.5 9.41677V10.9168H12.75C12.844 10.9168 12.9301 10.9695 12.9728 11.0533C13.0154 11.1371 13.0075 11.2378 12.9522 11.3138L10.9522 14.0638C10.8885 14.1514 10.7757 14.188 10.6727 14.1545C10.5697 14.121 10.5 14.025 10.5 13.9168V12.4168H9.25C9.15597 12.4168 9.06989 12.364 9.02722 12.2802C8.98455 12.1964 8.99251 12.0958 9.04782 12.0197L11.0478 9.26972C11.1115 9.18215 11.2243 9.14553 11.3273 9.17902ZM9.74094 11.9168H10.75C10.8881 11.9168 11 12.0287 11 12.1668V13.148L12.2591 11.4168H11.25C11.1119 11.4168 11 11.3048 11 11.1668V10.1856L9.74094 11.9168Z" fill="black"/>
</g>
<g clip-path="url(#clip3_180_761)">
<path fill-rule="evenodd" clip-rule="evenodd" d="M14.2182 6.34143C14.2868 6.36376 14.3333 6.42774 14.3333 6.49993V7.49993H15.1666C15.2293 7.49993 15.2867 7.53511 15.3151 7.59097C15.3436 7.64683 15.3383 7.71393 15.3014 7.76463L13.9681 9.59796C13.9256 9.65634 13.8504 9.68075 13.7818 9.65843C13.7131 9.6361 13.6666 9.57212 13.6666 9.49993V8.49993H12.8333C12.7706 8.49993 12.7132 8.46475 12.6848 8.40889C12.6563 8.35303 12.6616 8.28593 12.6985 8.23523L14.0318 6.4019C14.0743 6.34352 14.1495 6.31911 14.2182 6.34143ZM13.1606 8.1666H13.8333C13.9253 8.1666 14 8.24122 14 8.33326V8.9874L14.8393 7.83326H14.1666C14.0746 7.83326 14 7.75864 14 7.6666V7.01246L13.1606 8.1666Z" fill="black"/>
</g>
</g>
<defs>
<clipPath id="clip0_180_761">
<rect width="16" height="16" fill="white"/>
</clipPath>
<clipPath id="clip1_180_761">
<rect width="6" height="6" fill="white" transform="translate(2.66663 -0.666748)"/>
</clipPath>
<clipPath id="clip2_180_761">
<rect width="6" height="6" fill="white" transform="translate(8 8.66675)"/>
</clipPath>
<clipPath id="clip3_180_761">
<rect width="4" height="4" fill="white" transform="translate(12 6)"/>
</clipPath>
</defs>
</svg>
